<?xml version="1.0" encoding="utf-8"?>
<!-- Generator: Adobe Illustrator 16.0.3, SVG Export Plug-In . SVG Version: 6.00 Build 0)  -->
<!DOCTYPE svg PUBLIC "-//W3C//DTD SVG 1.1//EN" "http://www.w3.org/Graphics/SVG/1.1/DTD/svg11.dtd">
<svg version="1.1" id="레이어_1" xmlns="http://www.w3.org/2000/svg" xmlns:xlink="http://www.w3.org/1999/xlink" x="0px"
	 y="0px" width="118.478px" height="124.043px" viewBox="0 0 118.478 124.043" enable-background="new 0 0 118.478 124.043"
	 xml:space="preserve">
<polygon fill="none" stroke="#6D5BA5" stroke-width="3.5" stroke-linejoin="round" stroke-miterlimit="10" points="111.655,114.936 
	9.923,114.936 9.923,49.537 60.185,23.99 111.655,49.537 "/>
<polyline fill="#FFFFFF" points="27.823,66.057 27.823,13.744 94.358,13.744 94.358,65.887 "/>
<polyline fill="none" stroke="#000000" stroke-width="3.5" stroke-linejoin="round" stroke-miterlimit="10" points="27.823,66.057 
	27.823,13.744 94.358,13.744 94.358,65.887 "/>
<path fill="#FFFFFF" d="M10.225,114.936l37.613-28.645c7.829-5.961,18.677-5.961,26.507,0l37.613,28.645H10.225z"/>
<path fill="none" stroke="#6D5BA5" stroke-width="3.5" stroke-linejoin="bevel" stroke-miterlimit="10" d="M10.225,114.936
	l37.613-28.645c7.829-5.961,18.677-5.961,26.507,0l37.613,28.645H10.225z"/>
<line fill="none" stroke="#6D5BA5" stroke-width="3.5" stroke-miterlimit="10" x1="27.823" y1="66.735" x2="47.837" y2="86.292"/>
<line fill="none" stroke="#6D5BA5" stroke-width="3.5" stroke-miterlimit="10" x1="10.225" y1="49.537" x2="27.824" y2="66.735"/>
<line fill="none" stroke="#6D5BA5" stroke-width="3.5" stroke-linejoin="round" stroke-miterlimit="10" x1="111.655" y1="49.537" x2="74.043" y2="86.292"/>
<line fill="none" stroke="#000000" stroke-width="3.5" stroke-linecap="round" stroke-linejoin="round" stroke-miterlimit="10" x1="38.47" y1="23.99" x2="60.185" y2="23.99"/>
<line fill="none" stroke="#000000" stroke-width="3.5" stroke-linecap="round" stroke-linejoin="round" stroke-miterlimit="10" x1="59.729" y1="36.082" x2="86.157" y2="36.082"/>
<line fill="none" stroke="#000000" stroke-width="3.5" stroke-linecap="round" stroke-linejoin="round" stroke-miterlimit="10" x1="34.553" y1="51.75" x2="73.524" y2="51.75"/>
</svg>
